<svg width="20" height="20" viewBox="0 0 20 20" fill="none" xmlns="http://www.w3.org/2000/svg">
<g id="Group 227">
<g id="Group 226">
<path id="Vector" d="M18 9.35L14.1667 6.26667V4.16667C14.1871 3.74578 14.0398 3.33398 13.757 3.02156C13.4743 2.70913 13.0792 2.52157 12.6584 2.5H3.15838C2.74052 2.5258 2.34965 2.71519 2.07044 3.02715C1.79124 3.33911 1.64619 3.74851 1.66671 4.16667V12.5C1.65898 12.8309 1.74996 13.1567 1.92805 13.4357C2.10615 13.7147 2.36329 13.9344 2.66671 14.0667C2.51324 14.4421 2.45343 14.8493 2.49243 15.253C2.53144 15.6567 2.66809 16.0449 2.8906 16.384C3.11311 16.7232 3.4148 17.0031 3.76963 17.1996C4.12445 17.3961 4.52177 17.5033 4.92729 17.512C5.3328 17.5207 5.73435 17.4306 6.09727 17.2495C6.46019 17.0683 6.77358 16.8016 7.01042 16.4723C7.24725 16.143 7.40041 15.7611 7.45668 15.3594C7.51294 14.9577 7.47062 14.5484 7.33338 14.1667H12.6334C12.4963 14.5443 12.4523 14.9493 12.505 15.3476C12.5577 15.7458 12.7056 16.1255 12.9361 16.4545C13.1667 16.7834 13.4731 17.052 13.8295 17.2374C14.1859 17.4228 14.5817 17.5196 14.9834 17.5196C15.3851 17.5196 15.7809 17.4228 16.1372 17.2374C16.4936 17.052 16.8001 16.7834 17.0306 16.4545C17.2612 16.1255 17.4091 15.7458 17.4618 15.3476C17.5145 14.9493 17.4704 14.5443 17.3334 14.1667H17.5C17.7211 14.1667 17.933 14.0789 18.0893 13.9226C18.2456 13.7663 18.3334 13.5543 18.3334 13.3333V10C18.3308 9.87345 18.2995 9.74915 18.2417 9.63653C18.184 9.5239 18.1013 9.42592 18 9.35ZM16.6667 10.4V12.5H14.1667V8.4L16.6667 10.4ZM5.83338 15C5.83338 15.1648 5.7845 15.3259 5.69293 15.463C5.60137 15.6 5.47122 15.7068 5.31895 15.7699C5.16667 15.833 4.99912 15.8495 4.83747 15.8173C4.67582 15.7852 4.52733 15.7058 4.41079 15.5893C4.29424 15.4727 4.21488 15.3242 4.18272 15.1626C4.15057 15.0009 4.16707 14.8334 4.23014 14.6811C4.29322 14.5288 4.40003 14.3987 4.53707 14.3071C4.67411 14.2155 4.83523 14.1667 5.00004 14.1667C5.22106 14.1667 5.43302 14.2545 5.5893 14.4107C5.74558 14.567 5.83338 14.779 5.83338 15ZM15.8334 15C15.8334 15.1648 15.7845 15.3259 15.6929 15.463C15.6014 15.6 15.4712 15.7068 15.3189 15.7699C15.1667 15.833 14.9991 15.8495 14.8375 15.8173C14.6758 15.7852 14.5273 15.7058 14.4108 15.5893C14.2942 15.4727 14.2149 15.3242 14.1827 15.1626C14.1506 15.0009 14.1671 14.8334 14.2301 14.6811C14.2932 14.5288 14.4 14.3987 14.5371 14.3071C14.6741 14.2155 14.8352 14.1667 15 14.1667C15.2211 14.1667 15.433 14.2545 15.5893 14.4107C15.7456 14.567 15.8334 14.779 15.8334 15Z" fill="#397638"/>
</g>
<g id="Group">
<g id="Group_2">
<path id="Vector_2" d="M6.39045 10.8795C6.39045 10.8795 4.05904 11.0783 4.0166 8.30435C4.0166 8.30435 6.64423 8.25841 6.56742 10.6886L5.62866 9.93713L6.39045 10.8795Z" fill="#F7F5F2"/>
<path id="Vector_3" d="M6.29682 10.8989C6.04324 10.8989 5.33175 10.8502 4.77112 10.3468C4.27331 9.89982 4.01379 9.21261 4 8.30455V8.2879L4.01655 8.28748C4.02907 8.28727 5.25557 8.27484 6.00483 9.02927C6.4114 9.43852 6.60641 9.99697 6.58456 10.6888L6.5835 10.7223L5.73895 10.0463L6.4235 10.8932L6.39209 10.896C6.3904 10.896 6.35602 10.8987 6.29703 10.8987L6.29682 10.8989ZM4.03374 8.32099C4.05029 9.21114 4.30599 9.88444 4.79362 10.3221C5.40156 10.8679 6.18966 10.8711 6.35687 10.8646L5.51869 9.82754L6.55145 10.6543C6.56567 9.98749 6.37384 9.44885 5.98064 9.05287C5.2891 8.35639 4.18291 8.32225 4.03353 8.32078L4.03374 8.32099Z" fill="#F7F5F2"/>
</g>
<g id="Group_3">
<path id="Vector_4" d="M7.4295 10.8119C7.4295 10.8119 4.44856 8.34145 7.661 5.02362C7.661 5.02362 10.8115 8.01776 7.8628 10.7919L7.64042 8.8175L7.42971 10.8117L7.4295 10.8119Z" fill="#F7F5F2"/>
<path id="Vector_5" d="M7.44322 10.8446L7.41903 10.8245C7.40736 10.8148 6.24346 9.83344 6.159 8.30497C6.0981 7.20388 6.59952 6.09604 7.64926 5.01201L7.66093 5L7.67303 5.01159C7.68767 5.0255 9.14461 6.43048 9.14015 8.18401C9.13782 9.13485 8.71194 10.0164 7.87482 10.8043L7.85042 10.8273L7.64141 8.97216L7.44343 10.8446H7.44322ZM7.66157 5.0472C6.6269 6.12027 6.13248 7.21547 6.19253 8.30265C6.26913 9.69414 7.24948 10.6283 7.41648 10.778L7.64014 8.66301L7.8761 10.7569C8.69008 9.98159 9.10408 9.1161 9.10663 8.18422C9.11087 6.52952 7.80162 5.18608 7.66178 5.04742L7.66157 5.0472Z" fill="#F7F5F2"/>
</g>
<g id="Group_4">
<path id="Vector_6" d="M8.89933 10.8795C8.89933 10.8795 11.2307 11.0783 11.2732 8.30435C11.2732 8.30435 8.64554 8.25841 8.72236 10.6886L9.66111 9.93713L8.89933 10.8795Z" fill="#F7F5F2"/>
<path id="Vector_7" d="M8.99328 10.8989C8.93429 10.8989 8.89991 10.8962 8.89822 10.8962L8.86681 10.8935L9.55136 10.0465L8.70682 10.7226L8.70575 10.6891C8.6839 9.99721 8.87891 9.43876 9.28548 9.02951C10.0347 8.27487 11.2612 8.28814 11.2738 8.28772L11.2905 8.28814V8.30479C11.2763 9.21306 11.017 9.90006 10.5192 10.347C9.95856 10.8505 9.24707 10.8992 8.99349 10.8992L8.99328 10.8989ZM8.93323 10.8646C9.10065 10.8701 9.88896 10.8678 10.4969 10.322C10.9843 9.88426 11.2398 9.21095 11.2564 8.32102C11.1072 8.32228 10.0008 8.35642 9.30924 9.05311C8.91604 9.44909 8.72421 9.98773 8.73843 10.6545L9.77119 9.82778L8.93302 10.8648L8.93323 10.8646Z" fill="#F7F5F2"/>
</g>
</g>
</g>
</svg>
