<svg width="57" height="55" viewBox="0 0 57 55" fill="none" xmlns="http://www.w3.org/2000/svg">
<path d="M28.5 20.3292L39.2908 16.0366L12.5721 5.39374L3.35944 9.06197C2.89461 9.24623 2.45809 9.49463 2.06269 9.79987L28.5 20.3292ZM0.124689 12.8544C0.0415876 13.2307 -0.000220359 13.6149 8.73405e-07 14.0002V41.1253C-0.000177554 42.189 0.31979 43.2284 0.918609 44.1093C1.51743 44.9902 2.36761 45.6721 3.35944 46.0671L23.8688 54.2373C24.795 54.6062 25.7498 54.8581 26.7188 54.9965V23.444L0.124689 12.8544ZM30.2812 55C31.2581 54.8601 32.2148 54.6053 33.1313 54.2408L53.6406 46.0707C54.6329 45.6754 55.4835 44.9929 56.0824 44.1114C56.6813 43.2298 57.0009 42.1896 57 41.1253V14.0002C57 13.61 56.9572 13.2233 56.8753 12.8508L30.2812 23.444V55ZM54.9373 9.80342L44.0859 14.128L17.3672 3.48512L23.8688 0.888268C26.8417 -0.296089 30.1583 -0.296089 33.1313 0.888268L53.6406 9.05842C54.1054 9.24272 54.5419 9.49112 54.9373 9.79632V9.80342Z" fill="#214521"/>
</svg>
