<svg width="23" height="20" viewBox="3 4 20 20" fill="none" xmlns="http://www.w3.org/2000/svg">
<path d="M13.1259 20.4852C13.005 20.4859 12.8851 20.4627 12.7732 20.417C12.6612 20.3713 12.5594 20.3039 12.4735 20.2188L5.33431 13.0716C4.4388 12.1668 3.93648 10.9454 3.93648 9.67251C3.93648 8.39965 4.4388 7.17819 5.33431 6.27347C6.23684 5.37365 7.45939 4.86835 8.73395 4.86835C10.0085 4.86835 11.2311 5.37365 12.1336 6.27347L13.1259 7.26562L14.1182 6.27347C15.0208 5.37365 16.2433 4.86835 17.5179 4.86835C18.7924 4.86835 20.015 5.37365 20.9175 6.27347C21.813 7.17819 22.3153 8.39965 22.3153 9.67251C22.3153 10.9454 21.813 12.1668 20.9175 13.0716L13.7783 20.2188C13.6924 20.3039 13.5906 20.3713 13.4787 20.417C13.3667 20.4627 13.2468 20.4859 13.1259 20.4852Z" fill="#397638"/>
<path d="M13 22.75C12.8574 22.7508 12.7161 22.7235 12.5841 22.6695C12.4521 22.6156 12.3321 22.5362 12.2308 22.4358L3.81334 14.0075C2.75748 12.9406 2.16522 11.5002 2.16522 9.99912C2.16522 8.49809 2.75748 7.05768 3.81334 5.99079C4.87745 4.92968 6.3189 4.3338 7.82167 4.3338C9.32444 4.3338 10.7659 4.92968 11.83 5.99079L13 7.16079L14.17 5.99079C15.2341 4.92968 16.6756 4.3338 18.1783 4.3338C19.6811 4.3338 21.1226 4.92968 22.1867 5.99079C23.2425 7.05768 23.8348 8.49809 23.8348 9.99912C23.8348 11.5002 23.2425 12.9406 22.1867 14.0075L13.7692 22.4358C13.6679 22.5362 13.5479 22.6156 13.4159 22.6695C13.2839 22.7235 13.1426 22.7508 13 22.75ZM7.82167 6.49996C7.36307 6.49788 6.90862 6.58682 6.48463 6.76162C6.06064 6.93642 5.67556 7.19361 5.35167 7.51829C4.6974 8.17601 4.33013 9.06599 4.33013 9.99371C4.33013 10.9214 4.6974 11.8114 5.35167 12.4691L13 20.1283L20.6483 12.4691C21.3026 11.8114 21.6699 10.9214 21.6699 9.99371C21.6699 9.06599 21.3026 8.17601 20.6483 7.51829C19.9806 6.88747 19.0969 6.53603 18.1783 6.53603C17.2598 6.53603 16.376 6.88747 15.7083 7.51829L13.7692 9.46829C13.6685 9.56983 13.5486 9.65042 13.4166 9.70542C13.2846 9.76042 13.143 9.78874 13 9.78874C12.857 9.78874 12.7154 9.76042 12.5834 9.70542C12.4514 9.65042 12.3315 9.56983 12.2308 9.46829L10.2917 7.51829C9.96779 7.19361 9.5827 6.93642 9.15871 6.76162C8.73473 6.58682 8.28027 6.49788 7.82167 6.49996Z" fill="#397638"/>
</svg>
