<svg width="20" height="20" viewBox="0 0 20 20" fill="none" xmlns="http://www.w3.org/2000/svg">
<path d="M15.8333 10.8333H5.94996L8.97496 14.4667C9.045 14.5509 9.09775 14.6482 9.13021 14.7528C9.16267 14.8575 9.1742 14.9675 9.16414 15.0766C9.14383 15.297 9.03681 15.5002 8.86663 15.6417C8.69645 15.7831 8.47704 15.8512 8.25669 15.8309C8.03633 15.8105 7.83307 15.7035 7.69163 15.5333L3.52496 10.5333C3.49693 10.4936 3.47186 10.4518 3.44996 10.4083C3.44996 10.3667 3.40829 10.3417 3.39163 10.3C3.35385 10.2045 3.33408 10.1027 3.33329 10C3.33408 9.89727 3.35385 9.79556 3.39163 9.70001C3.39163 9.65834 3.43329 9.63334 3.44996 9.59167C3.47186 9.54822 3.49693 9.50644 3.52496 9.46667L7.69163 4.46667C7.76998 4.3726 7.86809 4.29695 7.979 4.2451C8.0899 4.19325 8.21087 4.16647 8.33329 4.16667C8.528 4.16629 8.7167 4.23411 8.86663 4.35834C8.95101 4.4283 9.02076 4.51421 9.07189 4.61117C9.12301 4.70813 9.15451 4.81422 9.16457 4.92336C9.17464 5.03251 9.16307 5.14257 9.13053 5.24724C9.09799 5.35191 9.04513 5.44913 8.97496 5.53334L5.94996 9.16667H15.8333C16.0543 9.16667 16.2663 9.25447 16.4225 9.41075C16.5788 9.56703 16.6666 9.77899 16.6666 10C16.6666 10.221 16.5788 10.433 16.4225 10.5893C16.2663 10.7455 16.0543 10.8333 15.8333 10.8333Z" fill="#214521"/>
</svg>
