<svg width="60" height="55" viewBox="0 0 60 55" fill="none" xmlns="http://www.w3.org/2000/svg">
<path d="M2.15614 9.13124H53.4251V2.13358C53.4252 1.8179 53.3551 1.50615 53.2201 1.2208C53.0851 0.935463 52.8884 0.683646 52.6442 0.483515C52.4001 0.283383 52.1146 0.139925 51.8083 0.0634862C51.502 -0.0129523 51.1826 -0.0204656 50.873 0.0414871L1.80412 8.10585C1.43874 8.17859 1.09877 8.34574 0.818051 8.59067C0.53733 8.8356 0.32564 9.14977 0.204047 9.50192C0.825504 9.25622 1.48787 9.13044 2.15614 9.13124ZM57.6253 12.3314H2.15614C1.59031 12.3314 1.04767 12.5562 0.647572 12.9563C0.247477 13.3563 0.0227051 13.899 0.0227051 14.4648V52.8666C0.0227051 53.4324 0.247477 53.975 0.647572 54.3751C1.04767 54.7752 1.59031 55 2.15614 55H57.6253C58.1912 55 58.7338 54.7752 59.1339 54.3751C59.534 53.975 59.7588 53.4324 59.7588 52.8666V14.4648C59.7588 13.899 59.534 13.3563 59.1339 12.9563C58.7338 12.5562 58.1912 12.3314 57.6253 12.3314ZM44.8914 37.9326C44.0475 37.9326 43.2226 37.6823 42.5209 37.2135C41.8192 36.7446 41.2723 36.0782 40.9494 35.2985C40.6264 34.5189 40.5419 33.661 40.7066 32.8333C40.8712 32.0056 41.2776 31.2453 41.8743 30.6486C42.471 30.0518 43.2313 29.6455 44.059 29.4808C44.8867 29.3162 45.7446 29.4007 46.5243 29.7236C47.304 30.0466 47.9703 30.5935 48.4392 31.2951C48.908 31.9968 49.1583 32.8218 49.1583 33.6657C49.1583 34.7973 48.7087 35.8826 47.9086 36.6828C47.1084 37.483 46.0231 37.9326 44.8914 37.9326Z" fill="#214521"/>
<path d="M0 29.8655V10.7313C0 9.08725 0.762702 8.26721 2.05609 8.06454C6.74964 7.32717 16.5341 6.93115 16.5341 6.93115C16.5341 6.93115 15.4234 9.06458 12.8899 9.06458V12.3314C15.3567 12.3314 17.0674 15.4649 17.0674 15.4649L7.13366 26.7321L0 29.8655Z" fill="#214521"/>
</svg>
