<svg width="25" height="25" viewBox="0 0 25 25" fill="none" xmlns="http://www.w3.org/2000/svg">
<g id="devicon:facebook">
<path id="Vector" d="M22.7832 0.943359H2.21875C1.51437 0.943359 0.943359 1.51437 0.943359 2.21875V22.7832C0.943359 23.4876 1.51437 24.0586 2.21875 24.0586H22.7832C23.4876 24.0586 24.0586 23.4876 24.0586 22.7832V2.21875C24.0586 1.51437 23.4876 0.943359 22.7832 0.943359Z" fill="#3D5A98"/>
<path id="Vector_2" d="M16.8906 24.0567V15.1056H19.8945L20.3438 11.6173H16.8906V9.39073C16.8906 8.38096 17.1719 7.69151 18.6191 7.69151H20.4668V4.56651C19.5721 4.47326 18.673 4.42893 17.7734 4.4337C15.1133 4.4337 13.2813 6.05479 13.2813 9.04503V11.6173H10.2773V15.1056H13.2813V24.0567H16.8906Z" fill="white"/>
</g>
</svg>
