<svg width="43" height="27" viewBox="0 0 43 27" fill="none" xmlns="http://www.w3.org/2000/svg">
<path d="M16.5324 13.0608C16.5324 8.9341 18.4336 5.27541 21.3911 2.87174C19.173 1.08494 16.3634 9.15527e-05 13.2792 9.15527e-05C6.1179 9.15527e-05 0.308594 5.84974 0.308594 13.0608C0.308594 20.2718 6.1179 26.1214 13.2792 26.1214C16.3423 26.1214 19.173 25.0366 21.3911 23.2498C18.4336 20.8461 16.5324 17.1662 16.5324 13.0608Z" fill="#E52327"/>
<path d="M16.5322 13.0607C16.5322 17.1874 18.4335 20.8461 21.3909 23.2498C24.3484 20.8461 26.2496 17.1874 26.2496 13.0607C26.2496 8.93407 24.3484 5.27538 21.3909 2.8717C18.4335 5.25411 16.5322 8.93407 16.5322 13.0607Z" fill="#EB6026"/>
<path d="M29.503 0.000183105C26.4399 0.000183105 23.6092 1.08503 21.3911 2.87183C24.3486 5.2755 26.2498 8.93419 26.2498 13.0609C26.2498 17.1875 24.3486 20.8462 21.3911 23.2499C23.6092 25.0367 26.4188 26.1215 29.503 26.1215C36.6643 26.1215 42.4736 20.2719 42.4736 13.0609C42.4736 5.84983 36.6643 0.000183105 29.503 0.000183105Z" fill="#EDB45A"/>
</svg>
