<?xml version="1.0" standalone="no"?>
<!DOCTYPE svg PUBLIC "-//W3C//DTD SVG 20010904//EN"
 "http://www.w3.org/TR/2001/REC-SVG-20010904/DTD/svg10.dtd">
<svg version="1.0" xmlns="http://www.w3.org/2000/svg"
 width="512.000000pt" height="512.000000pt" viewBox="0 0 512.000000 512.000000"
 preserveAspectRatio="xMidYMid meet">

<g transform="translate(0.000000,512.000000) scale(0.100000,-0.100000)"
fill="#000000" stroke="none">
<path d="M1745 5092 c-66 -49 -443 -435 -454 -465 -7 -18 -11 -133 -11 -303
l0 -274 -285 0 -285 0 -32 -29 -33 -29 -3 -1793 c-1 -1165 1 -1813 8 -1848 31
-170 169 -309 339 -341 74 -14 3069 -14 3141 0 171 32 309 171 340 340 7 36 9
675 8 1849 l-3 1793 -33 29 -32 29 -285 0 -285 0 0 276 c0 226 -3 282 -15 308
-20 42 -442 462 -478 475 -39 15 -1102 15 -1145 0 -64 -22 -67 -37 -67 -309 0
-272 3 -287 67 -309 20 -7 196 -11 514 -11 l484 0 0 -215 0 -215 -640 0 -639
0 -3 505 -3 505 -26 26 c-16 15 -41 28 -65 31 -32 4 -46 0 -79 -25z"/>
</g>
</svg>
