<svg width="25" height="20" viewBox="0 0 25 20" fill="none" xmlns="http://www.w3.org/2000/svg">
<path d="M20.75 8.75H13.25V1.25C13.25 0.918479 13.1183 0.600537 12.8839 0.366117C12.6495 0.131696 12.3315 0 12 0C11.6685 0 11.3505 0.131696 11.1161 0.366117C10.8817 0.600537 10.75 0.918479 10.75 1.25V8.75H3.25C2.91848 8.75 2.60054 8.8817 2.36612 9.11612C2.1317 9.35054 2 9.66848 2 10C2 10.3315 2.1317 10.6495 2.36612 10.8839C2.60054 11.1183 2.91848 11.25 3.25 11.25H10.75V18.75C10.75 19.0815 10.8817 19.3995 11.1161 19.6339C11.3505 19.8683 11.6685 20 12 20C12.3315 20 12.6495 19.8683 12.8839 19.6339C13.1183 19.3995 13.25 19.0815 13.25 18.75V11.25H20.75C21.0815 11.25 21.3995 11.1183 21.6339 10.8839C21.8683 10.6495 22 10.3315 22 10C22 9.66848 21.8683 9.35054 21.6339 9.11612C21.3995 8.8817 21.0815 8.75 20.75 8.75Z" fill="#231F20"/>
</svg>
