<svg width="20" height="20" viewBox="0 0 20 20" fill="none" xmlns="http://www.w3.org/2000/svg">
<path d="M15.8333 7.49999C15.3175 7.50144 14.8148 7.66239 14.3941 7.96078C13.9734 8.25916 13.6552 8.68037 13.4833 9.16666H2.49996C2.27895 9.16666 2.06698 9.25446 1.9107 9.41074C1.75442 9.56702 1.66663 9.77898 1.66663 9.99999C1.66663 10.221 1.75442 10.433 1.9107 10.5893C2.06698 10.7455 2.27895 10.8333 2.49996 10.8333H13.4833C13.6362 11.2657 13.905 11.6477 14.2605 11.9376C14.6159 12.2274 15.0443 12.4138 15.4986 12.4765C15.9529 12.5392 16.4157 12.4757 16.8364 12.293C17.257 12.1103 17.6193 11.8153 17.8836 11.4405C18.1478 11.0656 18.3039 10.6253 18.3347 10.1677C18.3655 9.71015 18.2698 9.25291 18.0581 8.84606C17.8464 8.43921 17.5269 8.09843 17.1345 7.86102C16.7421 7.6236 16.2919 7.49871 15.8333 7.49999ZM15.8333 10.8333C15.6685 10.8333 15.5074 10.7845 15.3703 10.6929C15.2333 10.6013 15.1265 10.4712 15.0634 10.3189C15.0003 10.1666 14.9838 9.99907 15.016 9.83742C15.0481 9.67577 15.1275 9.52728 15.244 9.41074C15.3606 9.2942 15.5091 9.21483 15.6707 9.18267C15.8324 9.15052 15.9999 9.16702 16.1522 9.2301C16.3045 9.29317 16.4346 9.39998 16.5262 9.53702C16.6178 9.67406 16.6666 9.83518 16.6666 9.99999C16.6666 10.221 16.5788 10.433 16.4225 10.5893C16.2663 10.7455 16.0543 10.8333 15.8333 10.8333Z" fill="white"/>
<path d="M2.49996 5.83333H3.48329C3.65846 6.31596 3.97798 6.73295 4.39843 7.02763C4.81888 7.32231 5.31986 7.48039 5.83329 7.48039C6.34673 7.48039 6.84771 7.32231 7.26816 7.02763C7.6886 6.73295 8.00812 6.31596 8.18329 5.83333H17.5C17.721 5.83333 17.9329 5.74553 18.0892 5.58925C18.2455 5.43297 18.3333 5.22101 18.3333 5C18.3333 4.77898 18.2455 4.56702 18.0892 4.41074C17.9329 4.25446 17.721 4.16666 17.5 4.16666H8.18329C8.00812 3.68404 7.6886 3.26705 7.26816 2.97237C6.84771 2.67768 6.34673 2.5196 5.83329 2.5196C5.31986 2.5196 4.81888 2.67768 4.39843 2.97237C3.97798 3.26705 3.65846 3.68404 3.48329 4.16666H2.49996C2.27895 4.16666 2.06698 4.25446 1.9107 4.41074C1.75442 4.56702 1.66663 4.77898 1.66663 5C1.66663 5.22101 1.75442 5.43297 1.9107 5.58925C2.06698 5.74553 2.27895 5.83333 2.49996 5.83333ZM5.83329 4.16666C5.99811 4.16666 6.15923 4.21554 6.29627 4.30711C6.43331 4.39867 6.54012 4.52882 6.60319 4.68109C6.66627 4.83337 6.68277 5.00092 6.65061 5.16257C6.61846 5.32422 6.53909 5.47271 6.42255 5.58925C6.306 5.7058 6.15752 5.78516 5.99587 5.81732C5.83422 5.84947 5.66666 5.83297 5.51439 5.7699C5.36212 5.70682 5.23197 5.60001 5.1404 5.46297C5.04883 5.32593 4.99996 5.16481 4.99996 5C4.99996 4.77898 5.08776 4.56702 5.24404 4.41074C5.40032 4.25446 5.61228 4.16666 5.83329 4.16666Z" fill="white"/>
<path d="M17.5 14.1667H11.5166C11.3415 13.684 11.0219 13.267 10.6015 12.9724C10.181 12.6777 9.68006 12.5196 9.16663 12.5196C8.65319 12.5196 8.15221 12.6777 7.73176 12.9724C7.31132 13.267 6.9918 13.684 6.81663 14.1667H2.49996C2.27895 14.1667 2.06698 14.2545 1.9107 14.4107C1.75442 14.567 1.66663 14.779 1.66663 15C1.66663 15.221 1.75442 15.433 1.9107 15.5893C2.06698 15.7455 2.27895 15.8333 2.49996 15.8333H6.81663C6.9918 16.316 7.31132 16.7329 7.73176 17.0276C8.15221 17.3223 8.65319 17.4804 9.16663 17.4804C9.68006 17.4804 10.181 17.3223 10.6015 17.0276C11.0219 16.7329 11.3415 16.316 11.5166 15.8333H17.5C17.721 15.8333 17.9329 15.7455 18.0892 15.5893C18.2455 15.433 18.3333 15.221 18.3333 15C18.3333 14.779 18.2455 14.567 18.0892 14.4107C17.9329 14.2545 17.721 14.1667 17.5 14.1667ZM9.16663 15.8333C9.00181 15.8333 8.84069 15.7845 8.70365 15.6929C8.56661 15.6013 8.4598 15.4712 8.39673 15.3189C8.33365 15.1666 8.31715 14.9991 8.3493 14.8374C8.38146 14.6758 8.46083 14.5273 8.57737 14.4107C8.69391 14.2942 8.8424 14.2148 9.00405 14.1827C9.1657 14.1505 9.33326 14.167 9.48553 14.2301C9.6378 14.2932 9.76795 14.4 9.85952 14.537C9.95109 14.6741 9.99996 14.8352 9.99996 15C9.99996 15.221 9.91216 15.433 9.75588 15.5893C9.5996 15.7455 9.38764 15.8333 9.16663 15.8333Z" fill="white"/>
</svg>
