<svg width="25" height="25" viewBox="0 0 25 25" fill="none" xmlns="http://www.w3.org/2000/svg">
<g id="logos:pinterest">
<path id="Vector" d="M0 12.5002C0 17.6187 3.07793 22.016 7.48232 23.9493C7.44717 23.0765 7.47607 22.0286 7.6999 21.0789C7.94023 20.0642 9.3083 14.2676 9.3083 14.2676C9.3083 14.2676 8.90898 13.4694 8.90898 12.2898C8.90898 10.4374 9.98262 9.05391 11.3197 9.05391C12.4567 9.05391 13.0061 9.90791 13.0061 10.9306C13.0061 12.0735 12.2771 13.7832 11.9021 15.3667C11.589 16.6927 12.567 17.7742 13.8751 17.7742C16.2435 17.7742 17.8386 14.7323 17.8386 11.1282C17.8386 8.38857 15.9934 6.33799 12.6372 6.33799C8.84541 6.33799 6.4832 9.16572 6.4832 12.3243C6.4832 13.4134 6.8043 14.1813 7.30723 14.7761C7.53848 15.0492 7.5706 15.1591 7.48691 15.4728C7.42695 15.7027 7.28926 16.2564 7.23223 16.4759C7.14902 16.7925 6.89248 16.9057 6.60635 16.7888C4.85986 16.0758 4.04648 14.1632 4.04648 12.0132C4.04648 8.46231 7.04121 4.20449 12.9803 4.20449C17.7527 4.20449 20.8938 7.65801 20.8938 11.3651C20.8938 16.2687 18.1677 19.9321 14.1491 19.9321C12.7996 19.9321 11.5302 19.2026 11.0953 18.374C11.0953 18.374 10.3696 21.2541 10.2159 21.8103C9.95088 22.774 9.43213 23.7373 8.95781 24.4881C10.108 24.8282 11.3011 25.0008 12.5005 25.0007C19.4032 25.0007 25.0001 19.4041 25.0001 12.5002C25.0001 5.59658 19.4032 0 12.5005 0C5.59707 0 0 5.59658 0 12.5002Z" fill="#CB1F27"/>
</g>
</svg>
