<svg width="20" height="20" viewBox="0 0 20 20" fill="none" xmlns="http://www.w3.org/2000/svg">
<path fill-rule="evenodd" clip-rule="evenodd" d="M18.9973 0L19.9968 17.8891C20.0585 18.9919 19.2092 19.9357 18.1 19.9969C18.0443 19.9995 18.0443 19.9995 17.9885 20H2.01148C0.90057 20 0 19.1046 0 18C0.000516357 17.9445 0.000516242 17.9445 0.00309685 17.8891L1.00264 0H18.9973ZM2.90547 2L2.01148 18H17.9885L17.0945 2H2.90547ZM4.97127 4H6.98275V6.5C6.98275 7.74837 8.37584 9 9.99997 9C11.6241 9 13.0172 7.74837 13.0172 6.5V4H15.0287V6.5C15.0287 8.9007 12.6921 11 9.99997 11C7.30785 11 4.97127 8.9007 4.97127 6.5V4Z" fill="black"/>
</svg>
