<svg width="46" height="55" viewBox="0 0 46 55" fill="none" xmlns="http://www.w3.org/2000/svg">
<g clip-path="url(#clip0_12_1126)">
<path d="M17.5674 30.5758C17.5674 30.5758 5.66089 31.5906 5.44415 17.4243C5.44415 17.4243 18.8635 17.1896 18.4712 29.6007L13.6769 25.7629L17.5674 30.5758Z" fill="#F7F5F2"/>
<path d="M17.0895 30.6748C15.7944 30.6748 12.1608 30.4262 9.29774 27.8551C6.75541 25.5724 5.43006 22.0628 5.35962 17.4253V17.3403L5.44415 17.3382C5.50808 17.3371 11.7718 17.2736 15.5983 21.1265C17.6746 23.2165 18.6706 26.0685 18.5589 29.6018L18.5535 29.7729L14.2404 26.3204L17.7364 30.6457L17.576 30.6597C17.5674 30.6597 17.3918 30.6737 17.0905 30.6737L17.0895 30.6748ZM5.53193 17.5093C5.61645 22.0553 6.9223 25.4938 9.41261 27.7291C12.5174 30.5166 16.5422 30.5327 17.3961 30.4993L13.1156 25.2032L18.3899 29.4253C18.4625 26.0201 17.4828 23.2692 15.4748 21.247C11.943 17.6901 6.29376 17.5157 5.53084 17.5082L5.53193 17.5093Z" fill="#F7F5F2"/>
<path d="M22.8742 30.2303C22.8742 30.2303 7.65057 17.6137 24.0565 0.669556C24.0565 0.669556 40.146 15.9606 25.0871 30.1281L23.9514 20.0449L22.8753 30.2292L22.8742 30.2303Z" fill="#F7F5F2"/>
<path d="M22.9436 30.3971L22.82 30.2949C22.7604 30.2454 16.8164 25.2334 16.3851 17.4275C16.0741 11.8042 18.6348 6.14647 23.9958 0.610356L24.0554 0.549011L24.1172 0.608204C24.192 0.679235 31.6326 7.85444 31.6098 16.8097C31.5979 21.6657 29.4229 26.1675 25.1478 30.1915L25.0232 30.3089L23.9557 20.8348L22.9446 30.3971H22.9436ZM24.0587 0.790086C18.7746 6.27024 16.2496 11.8634 16.5563 17.4157C16.9475 24.522 21.9541 29.2929 22.807 30.057L23.9492 19.256L25.1543 29.9494C29.3113 25.99 31.4256 21.5699 31.4386 16.8108C31.4603 8.36027 24.7739 1.49932 24.0598 0.791162L24.0587 0.790086Z" fill="#F7F5F2"/>
<path d="M30.3809 30.5758C30.3809 30.5758 42.2874 31.5906 42.5041 17.4243C42.5041 17.4243 29.0848 17.1896 29.4771 29.6007L34.2714 25.7629L30.3809 30.5758Z" fill="#F7F5F2"/>
<path d="M30.8599 30.6748C30.5586 30.6748 30.3831 30.6608 30.3744 30.6608L30.214 30.6468L33.71 26.3214L29.3969 29.774L29.3915 29.6028C29.2799 26.0696 30.2758 23.2176 32.3521 21.1276C36.1786 17.2736 42.4423 17.3414 42.5063 17.3392L42.5919 17.3414V17.4264C42.5193 22.0649 41.195 25.5735 38.6527 27.8561C35.7896 30.4272 32.156 30.6758 30.861 30.6758L30.8599 30.6748ZM30.5532 30.4993C31.4082 30.5273 35.4341 30.5155 38.5389 27.7281C41.0281 25.4927 42.3329 22.0542 42.4174 17.5093C41.6556 17.5157 36.0052 17.6901 32.4735 21.2481C30.4654 23.2703 29.4858 26.0212 29.5584 29.4263L34.8327 25.2043L30.5521 30.5004L30.5532 30.4993Z" fill="#F7F5F2"/>
<path d="M3.3797 42.2614C2.76417 41.9181 2.27651 41.4435 1.91564 40.8354C1.55477 40.2274 1.37488 39.5397 1.37488 38.7723C1.37488 38.005 1.55477 37.328 1.91564 36.7199C2.27651 36.1119 2.76417 35.6373 3.3797 35.2939C3.99523 34.9506 4.67146 34.7795 5.40728 34.7795C6.1431 34.7795 6.82799 34.9506 7.44028 35.2939C8.05256 35.6373 8.53589 36.1119 8.8935 36.7199C9.25004 37.328 9.42885 38.0114 9.42885 38.7723C9.42885 39.5332 9.25004 40.2284 8.8935 40.8354C8.53697 41.4435 8.05039 41.9181 7.43486 42.2614C6.81933 42.6048 6.1431 42.7759 5.40728 42.7759C4.67146 42.7759 3.99523 42.6048 3.3797 42.2614ZM6.65677 41.0593C7.01764 40.8473 7.29832 40.5427 7.50096 40.1477C7.70361 39.7528 7.80548 39.2943 7.80548 38.7723C7.80548 38.2503 7.70361 37.794 7.50096 37.4023C7.29832 37.0105 7.01656 36.7103 6.65677 36.5015C6.2959 36.2927 5.87977 36.1883 5.4062 36.1883C4.93263 36.1883 4.51432 36.2927 4.1502 36.5015C3.78608 36.7103 3.50216 37.0105 3.29951 37.4023C3.09686 37.794 2.99499 38.2503 2.99499 38.7723C2.99499 39.2943 3.09686 39.7528 3.29951 40.1477C3.50216 40.5427 3.785 40.8473 4.1502 41.0593C4.51432 41.2713 4.93263 41.3779 5.4062 41.3779C5.87977 41.3779 6.2959 41.2713 6.65677 41.0593Z" fill="#F7F5F2"/>
<path d="M12.9682 36.692C13.2943 36.5058 13.6682 36.4121 14.0887 36.4121V38.0566H13.6715C13.1762 38.0566 12.8024 38.1728 12.5509 38.4032C12.2995 38.6346 12.1738 39.0371 12.1738 39.6107V42.6973H10.597V36.5015H12.1738V37.4636C12.3765 37.1354 12.6409 36.8781 12.9682 36.692Z" fill="#F7F5F2"/>
<path d="M15.2547 35.5006C15.0705 35.3252 14.9784 35.1078 14.9784 34.8462C14.9784 34.5847 15.0705 34.3673 15.2547 34.1919C15.439 34.0165 15.6698 33.9293 15.9472 33.9293C16.2246 33.9293 16.4555 34.0175 16.6397 34.1919C16.8239 34.3673 16.916 34.5847 16.916 34.8462C16.916 35.1078 16.8239 35.3252 16.6397 35.5006C16.4555 35.676 16.2246 35.7632 15.9472 35.7632C15.6698 35.7632 15.439 35.676 15.2547 35.5006ZM16.7242 36.5015V42.6973H15.1474V36.5015H16.7242Z" fill="#F7F5F2"/>
<path d="M27.0063 42.6973L26.1502 41.8589C25.4219 42.5079 24.5322 42.8318 23.4811 42.8318C22.9024 42.8318 22.3941 42.7328 21.9552 42.5359C21.5163 42.3389 21.176 42.0591 20.9366 41.6975C20.696 41.3359 20.5757 40.9162 20.5757 40.4394C20.5757 39.925 20.722 39.4622 21.0146 39.0521C21.3072 38.6421 21.7396 38.3106 22.3096 38.0566C22.1069 37.8102 21.9606 37.5745 21.8707 37.3463C21.7807 37.1192 21.7352 36.8749 21.7352 36.6134C21.7352 36.255 21.8295 35.9332 22.017 35.6459C22.2045 35.3585 22.4732 35.1336 22.8222 34.9689C23.1711 34.8053 23.5786 34.7225 24.0446 34.7225C24.5106 34.7225 24.9234 34.8118 25.2605 34.9905C25.5986 35.1691 25.85 35.408 26.0147 35.7061C26.1794 36.0043 26.251 36.3368 26.2282 36.7017H24.6969C24.7045 36.4552 24.6438 36.2669 24.5171 36.1366C24.3892 36.0064 24.2169 35.9408 23.9991 35.9408C23.7812 35.9408 23.6143 36.0021 23.4756 36.1248C23.3369 36.2475 23.2676 36.4068 23.2676 36.6005C23.2676 36.7942 23.3239 36.9718 23.4366 37.1537C23.5493 37.3366 23.7335 37.5616 23.9882 37.8306L25.9703 39.7764C25.9855 39.7614 25.9963 39.7463 26.0039 39.7312C26.0115 39.7162 26.019 39.7011 26.0266 39.686L26.6682 38.6238H28.3121L27.5243 39.9992C27.3737 40.2898 27.2122 40.5664 27.0399 40.8268L28.9428 42.6941H27.0063V42.6973ZM25.1597 40.886L23.2231 38.9843C22.4949 39.3051 22.1308 39.7603 22.1308 40.349C22.1308 40.6848 22.2586 40.9657 22.5133 41.1938C22.768 41.4209 23.1061 41.535 23.5266 41.535C24.1421 41.535 24.6861 41.3187 25.1597 40.886Z" fill="#F7F5F2"/>
<path d="M32.389 37.9167C32.6512 37.4357 33.0153 37.0633 33.4813 36.7985C33.9462 36.5338 34.4794 36.4014 35.0808 36.4014C35.8546 36.4014 36.494 36.593 37.0011 36.9772C37.5083 37.3614 37.8475 37.8995 38.0198 38.5937H36.3195C36.2295 38.3257 36.0778 38.1148 35.8633 37.9619C35.6498 37.8091 35.3843 37.7327 35.0689 37.7327C34.6181 37.7327 34.2616 37.8952 33.9993 38.2191C33.736 38.5431 33.6049 39.0037 33.6049 39.5999C33.6049 40.1962 33.736 40.646 33.9993 40.97C34.2616 41.2939 34.6192 41.4564 35.0689 41.4564C35.7072 41.4564 36.1233 41.1734 36.3195 40.6062H38.0198C37.8464 41.2778 37.505 41.8105 36.9946 42.2055C36.4842 42.6005 35.8459 42.7985 35.0798 42.7985C34.4794 42.7985 33.9462 42.6661 33.4802 42.4014C33.0142 42.1366 32.6501 41.7642 32.3879 41.2832C32.1245 40.8021 31.9934 40.2414 31.9934 39.5999C31.9934 38.9585 32.1245 38.3978 32.3879 37.9167H32.389Z" fill="#F7F5F2"/>
<path d="M40.3291 42.4014C39.8491 42.1366 39.4709 41.7621 39.1978 41.2778C38.9236 40.7935 38.787 40.2338 38.787 39.5999C38.787 38.966 38.9279 38.4075 39.2097 37.9221C39.4914 37.4378 39.8762 37.0633 40.3638 36.7985C40.8515 36.5338 41.3966 36.4014 41.9969 36.4014C42.5973 36.4014 43.1413 36.5338 43.63 36.7985C44.1177 37.0633 44.5024 37.4378 44.7842 37.9221C45.0659 38.4064 45.2068 38.966 45.2068 39.5999C45.2068 40.2338 45.0627 40.7924 44.7733 41.2778C44.484 41.7621 44.0939 42.1377 43.6019 42.4014C43.1099 42.6661 42.5604 42.7985 41.9525 42.7985C41.3446 42.7985 40.8114 42.6661 40.3313 42.4014H40.3291ZM42.7566 41.2272C43.008 41.0894 43.2085 40.8828 43.3591 40.6062C43.5087 40.3307 43.5845 39.9949 43.5845 39.5999C43.5845 39.0113 43.4285 38.5582 43.1175 38.2407C42.8054 37.9243 42.425 37.765 41.9742 37.765C41.5234 37.765 41.1462 37.9232 40.8428 38.2407C40.5383 38.5582 40.3866 39.0102 40.3866 39.5999C40.3866 40.1897 40.535 40.6417 40.832 40.9592C41.1289 41.2767 41.5017 41.4349 41.9525 41.4349C42.2375 41.4349 42.5063 41.366 42.7577 41.2283L42.7566 41.2272Z" fill="#F7F5F2"/>
<path d="M15.4563 47.0076C15.155 47.2734 14.7075 47.4069 14.1147 47.4069H12.9443V49.794H12.5932V44.3547H14.1147C14.7183 44.3547 15.168 44.4935 15.465 44.7691C15.7619 45.0456 15.9093 45.4191 15.9093 45.8883C15.9093 46.3576 15.7587 46.7418 15.4563 47.0076ZM15.5582 45.8883C15.5582 45.4901 15.4433 45.1866 15.2146 44.9778C14.986 44.7691 14.6186 44.6636 14.1147 44.6636H12.9443V47.0969H14.1147C15.077 47.0969 15.5582 46.6944 15.5582 45.8883Z" fill="#F7F5F2"/>
<path d="M17.2032 44.0587V49.7929H16.8521V44.0587H17.2032Z" fill="#F7F5F2"/>
<path d="M18.534 46.5459C18.7085 46.2209 18.9501 45.9701 19.2601 45.7947C19.5689 45.6193 19.9222 45.531 20.3177 45.531C20.7653 45.531 21.1446 45.6397 21.4567 45.8561C21.7688 46.0735 21.9877 46.349 22.1123 46.6848V45.5848H22.4634V49.7929H22.1123V48.6844C21.9877 49.0255 21.7677 49.3054 21.4535 49.5249C21.1392 49.7445 20.7599 49.8542 20.3177 49.8542C19.9222 49.8542 19.57 49.7649 19.2601 49.5873C18.9501 49.4087 18.7085 49.1558 18.534 48.8275C18.3595 48.4993 18.2728 48.1183 18.2728 47.6846C18.2728 47.2508 18.3595 46.8709 18.534 46.5459ZM21.8815 46.7127C21.7276 46.4308 21.5185 46.2144 21.253 46.0616C20.9875 45.9088 20.6916 45.8335 20.3633 45.8335C20.0349 45.8335 19.7185 45.9066 19.4584 46.0541C19.1983 46.2015 18.9956 46.4146 18.8493 46.6934C18.7041 46.9721 18.6304 47.3025 18.6304 47.6856C18.6304 48.0688 18.7031 48.3981 18.8493 48.6779C18.9946 48.9567 19.1994 49.1708 19.4616 49.3215C19.7239 49.4711 20.0251 49.5464 20.3633 49.5464C20.7014 49.5464 20.9885 49.47 21.2562 49.3183C21.5239 49.1655 21.733 48.9491 21.8848 48.6672C22.0354 48.3852 22.1112 48.0591 22.1112 47.6867C22.1112 47.3143 22.0343 46.9958 21.8815 46.7138V46.7127Z" fill="#F7F5F2"/>
<path d="M26.8859 45.9615C27.2035 46.2693 27.3617 46.7246 27.3617 47.3294V49.794H27.0181V47.3531C27.0181 46.8516 26.8903 46.4684 26.6356 46.2026C26.3809 45.9368 26.0352 45.8033 25.5974 45.8033C25.1596 45.8033 24.7738 45.9475 24.5007 46.237C24.2276 46.5265 24.0911 46.9549 24.0911 47.5231V49.794H23.74V45.5859H24.0911V46.477C24.2103 46.1617 24.4097 45.9206 24.6882 45.7527C24.9667 45.5848 25.2875 45.5009 25.6516 45.5009C26.1566 45.5009 26.5673 45.6548 26.8849 45.9615H26.8859Z" fill="#F7F5F2"/>
<path d="M29.1259 45.8873V48.6693C29.1259 48.9793 29.1834 49.1924 29.2971 49.3086C29.412 49.4248 29.6147 49.4829 29.9062 49.4829H30.3819V49.7929H29.8509C29.4814 49.7929 29.2094 49.7068 29.036 49.5335C28.8615 49.3603 28.7748 49.0729 28.7748 48.6693V45.8873H28.1354V45.5848H28.7748V44.5151H29.1259V45.5848H30.3819V45.8873H29.1259Z" fill="#F7F5F2"/>
<path d="M35.1101 47.8245H31.4504C31.4602 48.2012 31.5436 48.5197 31.6997 48.778C31.8557 49.0363 32.0616 49.23 32.3163 49.3592C32.571 49.4883 32.8495 49.5529 33.1507 49.5529C33.5669 49.5529 33.9158 49.4507 34.1965 49.2473C34.4772 49.0428 34.6538 48.7662 34.7275 48.4143H35.0938C35.0104 48.8437 34.7969 49.1902 34.4544 49.456C34.1109 49.7219 33.6763 49.8553 33.1518 49.8553C32.7563 49.8553 32.403 49.7671 32.0909 49.5916C31.7788 49.4162 31.5339 49.1644 31.3572 48.8361C31.1806 48.5079 31.0917 48.1247 31.0917 47.6856C31.0917 47.2465 31.1784 46.8645 31.3529 46.5384C31.5274 46.2134 31.7701 45.9637 32.0822 45.7904C32.3943 45.6171 32.7509 45.531 33.1507 45.531C33.5506 45.531 33.9093 45.6171 34.2084 45.7904C34.5075 45.9637 34.7351 46.1929 34.8911 46.4803C35.0472 46.7665 35.1252 47.0754 35.1252 47.4058C35.1252 47.592 35.1198 47.7308 35.1101 47.8245ZM34.5758 46.5922C34.4273 46.3339 34.2258 46.1413 33.9711 46.0153C33.7164 45.8883 33.4401 45.8259 33.1442 45.8259C32.8484 45.8259 32.5731 45.8894 32.3206 46.0153C32.0681 46.1423 31.8633 46.3339 31.704 46.5922C31.5458 46.8505 31.4602 47.1658 31.4504 47.5371H34.7741C34.7893 47.1648 34.7232 46.8505 34.5747 46.5922H34.5758Z" fill="#F7F5F2"/>
</g>
<defs>
<clipPath id="clip0_12_1126">
<rect width="44.6078" height="53.5294" fill="white" transform="translate(0.980408 0.549011)"/>
</clipPath>
</defs>
</svg>
