<svg width="65" height="78" viewBox="0 0 65 78" fill="none" xmlns="http://www.w3.org/2000/svg">
<g clip-path="url(#clip0_58_1633)">
<path d="M24.1695 43.7532C24.1695 43.7532 6.82009 45.232 6.50427 24.5896C6.50427 24.5896 26.0581 24.2477 25.4865 42.3324L18.5006 36.7401L24.1695 43.7532Z" fill="#214521"/>
<path d="M23.4732 43.8975C21.5861 43.8975 16.2915 43.5352 12.1195 39.7887C8.41497 36.4626 6.48374 31.3486 6.3811 24.5911V24.4673L6.50427 24.4641C6.59744 24.4626 15.7246 24.37 21.3003 29.9842C24.3259 33.0297 25.777 37.1855 25.6144 42.334L25.6065 42.5833L19.3217 37.5525L24.4159 43.8551L24.1822 43.8755C24.1695 43.8755 23.9137 43.8959 23.4747 43.8959L23.4732 43.8975ZM6.63218 24.7135C6.75535 31.3376 8.65815 36.3481 12.2869 39.6053C16.811 43.6669 22.6757 43.6905 23.92 43.6419L17.6826 35.9247L25.3681 42.0768C25.4739 37.1149 24.0464 33.1066 21.1203 30.1599C15.9741 24.9769 7.74228 24.7229 6.6306 24.7119L6.63218 24.7135Z" fill="#214521"/>
<path d="M31.9023 43.2498C31.9023 43.2498 9.71929 24.8656 33.6251 0.175537C33.6251 0.175537 57.0698 22.4568 35.1268 43.1008L33.4719 28.4082L31.9039 43.2482L31.9023 43.2498Z" fill="#214521"/>
<path d="M32.0034 43.4929L31.8234 43.344C31.7365 43.2718 23.0752 35.9686 22.4467 24.5944C21.9935 16.4004 25.7249 8.1563 33.5367 0.0893884L33.6235 0L33.7135 0.086252C33.8225 0.189754 44.6645 10.6451 44.6314 23.6942C44.614 30.77 41.4447 37.3298 35.2152 43.1934L35.0337 43.3643L33.4782 29.5593L32.005 43.4929H32.0034ZM33.6283 0.351281C25.9286 8.33664 22.2494 16.4867 22.6962 24.5771C23.2663 34.932 30.5617 41.8839 31.8044 42.9974L33.4688 27.2588L35.2247 42.8406C41.2821 37.0711 44.3629 30.6304 44.3819 23.6958C44.4134 11.3821 34.6705 1.38474 33.6298 0.352849L33.6283 0.351281Z" fill="#214521"/>
<path d="M42.8407 43.7534C42.8407 43.7534 60.1901 45.2323 60.5059 24.5898C60.5059 24.5898 40.9521 24.2479 41.5237 42.3326L48.5096 36.7404L42.8407 43.7534Z" fill="#214521"/>
<path d="M43.5386 43.8976C43.0996 43.8976 42.8438 43.8772 42.8312 43.8772L42.5975 43.8568L47.6916 37.5542L41.4069 42.585L41.399 42.3357C41.2363 37.1872 42.6875 33.0314 45.713 29.9859C51.2888 24.3702 60.4159 24.469 60.5091 24.4658L60.6338 24.469V24.5928C60.528 31.3519 58.5984 36.4643 54.8938 39.7904C50.7219 43.5369 45.4272 43.8992 43.5402 43.8992L43.5386 43.8976ZM43.0917 43.642C44.3376 43.6828 50.2039 43.6655 54.728 39.6038C58.3552 36.3466 60.2564 31.3362 60.3796 24.7136C59.2695 24.723 51.0361 24.9771 45.8899 30.1616C42.9638 33.1083 41.5363 37.1166 41.6421 42.0785L49.3276 35.9264L43.0902 43.6436L43.0917 43.642Z" fill="#214521"/>
<path d="M3.49614 60.7809C2.59922 60.2806 1.88863 59.5891 1.36279 58.703C0.836958 57.817 0.574829 56.8149 0.574829 55.6967C0.574829 54.5786 0.836958 53.5922 1.36279 52.7062C1.88863 51.8201 2.59922 51.1285 3.49614 50.6283C4.39306 50.128 5.37841 49.8787 6.45062 49.8787C7.52282 49.8787 8.5208 50.128 9.41298 50.6283C10.3052 51.1285 11.0094 51.8201 11.5305 52.7062C12.0501 53.5922 12.3106 54.588 12.3106 55.6967C12.3106 56.8055 12.0501 57.8185 11.5305 58.703C11.011 59.5891 10.302 60.2806 9.40509 60.7809C8.50817 61.2812 7.52282 61.5305 6.45062 61.5305C5.37841 61.5305 4.39306 61.2812 3.49614 60.7809ZM8.2713 59.0292C8.79714 58.7203 9.20612 58.2765 9.50141 57.7009C9.7967 57.1254 9.94514 56.4573 9.94514 55.6967C9.94514 54.9362 9.7967 54.2712 9.50141 53.7004C9.20612 53.1296 8.79556 52.692 8.2713 52.3878C7.74547 52.0836 7.1391 51.9315 6.44904 51.9315C5.75898 51.9315 5.14945 52.0836 4.61887 52.3878C4.0883 52.692 3.67458 53.1296 3.37929 53.7004C3.084 54.2712 2.93557 54.9362 2.93557 55.6967C2.93557 56.4573 3.084 57.1254 3.37929 57.7009C3.67458 58.2765 4.08672 58.7203 4.61887 59.0292C5.14945 59.3382 5.75898 59.4934 6.44904 59.4934C7.1391 59.4934 7.74547 59.3382 8.2713 59.0292Z" fill="#214521"/>
<path d="M17.4679 52.6655C17.9432 52.3942 18.488 52.2578 19.1007 52.2578V54.654H18.4928C17.7711 54.654 17.2263 54.8234 16.86 55.159C16.4936 55.4962 16.3105 56.0827 16.3105 56.9186V61.4162H14.0129V52.388H16.3105V53.79C16.6057 53.3117 16.991 52.9368 17.4679 52.6655Z" fill="#214521"/>
<path d="M20.7998 50.9295C20.5313 50.6739 20.3971 50.3571 20.3971 49.976C20.3971 49.5949 20.5313 49.2782 20.7998 49.0225C21.0682 48.7669 21.4046 48.6399 21.8088 48.6399C22.213 48.6399 22.5494 48.7685 22.8178 49.0225C23.0863 49.2782 23.2205 49.5949 23.2205 49.976C23.2205 50.3571 23.0863 50.6739 22.8178 50.9295C22.5494 51.1851 22.213 51.3121 21.8088 51.3121C21.4046 51.3121 21.0682 51.1851 20.7998 50.9295ZM22.941 52.3879V61.4162H20.6434V52.3879H22.941Z" fill="#214521"/>
<path d="M37.9234 61.4161L36.6759 60.1945C35.6148 61.1401 34.3184 61.6122 32.7866 61.6122C31.9434 61.6122 31.2028 61.4679 30.5633 61.1809C29.9237 60.8939 29.4279 60.4862 29.0789 59.9593C28.7284 59.4324 28.5531 58.8207 28.5531 58.126C28.5531 57.3764 28.7663 56.7021 29.1926 56.1046C29.619 55.5071 30.249 55.0241 31.0796 54.654C30.7844 54.2949 30.5712 53.9514 30.4401 53.619C30.309 53.2881 30.2427 52.9321 30.2427 52.551C30.2427 52.0288 30.3801 51.5599 30.6533 51.1412C30.9265 50.7225 31.3181 50.3947 31.8265 50.1548C32.335 49.9164 32.9288 49.7957 33.6078 49.7957C34.2868 49.7957 34.8884 49.9258 35.3795 50.1861C35.8722 50.4465 36.2385 50.7946 36.4785 51.229C36.7186 51.6634 36.8228 52.148 36.7896 52.6796H34.5584C34.5694 52.3205 34.481 52.046 34.2962 51.8563C34.1099 51.6665 33.8588 51.5709 33.5414 51.5709C33.224 51.5709 32.9809 51.6603 32.7787 51.839C32.5766 52.0178 32.4756 52.2499 32.4756 52.5322C32.4756 52.8145 32.5577 53.0732 32.7219 53.3383C32.8861 53.6049 33.1546 53.9326 33.5256 54.3247L36.4138 57.16C36.4359 57.138 36.4517 57.1161 36.4628 57.0941C36.4738 57.0722 36.4849 57.0502 36.4959 57.0283L37.4307 55.4804H39.8262L38.6782 57.4846C38.4587 57.908 38.2234 58.3111 37.9724 58.6906L40.7452 61.4114H37.9234V61.4161ZM35.2326 58.7768L32.4108 56.0058C31.3497 56.4731 30.8191 57.1365 30.8191 57.9943C30.8191 58.4836 31.0054 58.8929 31.3765 59.2253C31.7476 59.5562 32.2403 59.7225 32.853 59.7225C33.7499 59.7225 34.5426 59.4073 35.2326 58.7768Z" fill="#214521"/>
<path d="M45.7667 54.4502C46.1489 53.7492 46.6795 53.2066 47.3585 52.8209C48.0359 52.4351 48.8128 52.2422 49.6892 52.2422C50.8167 52.2422 51.7483 52.5213 52.4873 53.0812C53.2264 53.641 53.7206 54.4251 53.9717 55.4366H51.4941C51.363 55.0462 51.142 54.7388 50.8293 54.5161C50.5182 54.2934 50.1313 54.1821 49.6718 54.1821C49.0149 54.1821 48.4954 54.4189 48.1133 54.8909C47.7295 55.3629 47.5385 56.0341 47.5385 56.9029C47.5385 57.7717 47.7295 58.4272 48.1133 58.8993C48.4954 59.3713 49.0165 59.6081 49.6718 59.6081C50.6019 59.6081 51.2083 59.1957 51.4941 58.3692H53.9717C53.719 59.3478 53.2216 60.124 52.4779 60.6996C51.7341 61.2751 50.804 61.5637 49.6876 61.5637C48.8128 61.5637 48.0359 61.3708 47.3569 60.985C46.6779 60.5992 46.1473 60.0566 45.7652 59.3556C45.3814 58.6546 45.1904 57.8376 45.1904 56.9029C45.1904 55.9683 45.3814 55.1512 45.7652 54.4502H45.7667Z" fill="#214521"/>
<path d="M57.3367 60.985C56.6372 60.5992 56.0861 60.0535 55.6881 59.3478C55.2886 58.6421 55.0897 57.8266 55.0897 56.9029C55.0897 55.9793 55.2949 55.1653 55.7055 54.4581C56.1161 53.7524 56.6766 53.2066 57.3872 52.8209C58.0978 52.4351 58.8921 52.2422 59.7669 52.2422C60.6417 52.2422 61.4344 52.4351 62.1466 52.8209C62.8572 53.2066 63.4178 53.7524 63.8283 54.4581C64.2389 55.1638 64.4442 55.9793 64.4442 56.9029C64.4442 57.8266 64.2342 58.6405 63.8125 59.3478C63.3909 60.0535 62.8225 60.6008 62.1055 60.985C61.3886 61.3708 60.588 61.5637 59.7022 61.5637C58.8163 61.5637 58.0394 61.3708 57.3399 60.985H57.3367ZM60.8739 59.2741C61.2402 59.0733 61.5323 58.7722 61.7518 58.3692C61.9697 57.9678 62.0803 57.4785 62.0803 56.9029C62.0803 56.0451 61.8529 55.3849 61.3997 54.9223C60.9449 54.4612 60.3907 54.2291 59.7338 54.2291C59.0769 54.2291 58.5273 54.4596 58.0852 54.9223C57.6415 55.3849 57.4204 56.0435 57.4204 56.9029C57.4204 57.7623 57.6367 58.421 58.0694 58.8836C58.5021 59.3462 59.0453 59.5767 59.7022 59.5767C60.1175 59.5767 60.5091 59.4764 60.8754 59.2756L60.8739 59.2741Z" fill="#214521"/>
<path d="M21.0935 67.6967C20.6545 68.0841 20.0023 68.2785 19.1385 68.2785H17.4331V71.7568H16.9215V63.8311H19.1385C20.0181 63.8311 20.6734 64.0334 21.1061 64.4348C21.5388 64.8379 21.7535 65.382 21.7535 66.0658C21.7535 66.7495 21.534 67.3094 21.0935 67.6967ZM21.2419 66.0658C21.2419 65.4855 21.0745 65.0433 20.7413 64.7391C20.4081 64.4348 19.8728 64.2811 19.1385 64.2811H17.4331V67.8269H19.1385C20.5408 67.8269 21.2419 67.2404 21.2419 66.0658Z" fill="#214521"/>
<path d="M23.6389 63.3999V71.7554H23.1273V63.3999H23.6389Z" fill="#214521"/>
<path d="M25.5781 67.024C25.8323 66.5504 26.1844 66.185 26.6361 65.9294C27.0861 65.6738 27.6009 65.5452 28.1772 65.5452C28.8294 65.5452 29.3821 65.7036 29.8369 66.0188C30.2916 66.3356 30.6106 66.737 30.7922 67.2263V65.6236H31.3038V71.7553H30.7922V70.14C30.6106 70.6372 30.2901 71.0449 29.8321 71.3648C29.3742 71.6847 28.8215 71.8447 28.1772 71.8447C27.6009 71.8447 27.0877 71.7145 26.6361 71.4558C26.1844 71.1955 25.8323 70.8269 25.5781 70.3486C25.3238 69.8703 25.1975 69.3152 25.1975 68.6832C25.1975 68.0512 25.3238 67.4976 25.5781 67.024ZM30.4559 67.2671C30.2316 66.8562 29.9269 66.541 29.54 66.3183C29.1531 66.0956 28.722 65.9858 28.2436 65.9858C27.7651 65.9858 27.304 66.0925 26.925 66.3073C26.546 66.5222 26.2508 66.8327 26.0376 67.2388C25.826 67.645 25.7186 68.1265 25.7186 68.6847C25.7186 69.243 25.8244 69.7229 26.0376 70.1306C26.2492 70.5368 26.5476 70.8489 26.9298 71.0684C27.3119 71.2864 27.7509 71.3962 28.2436 71.3962C28.7362 71.3962 29.1547 71.2848 29.5447 71.0637C29.9348 70.841 30.2395 70.5258 30.4606 70.115C30.6801 69.7041 30.7906 69.2289 30.7906 68.6863C30.7906 68.1437 30.6785 67.6795 30.4559 67.2686V67.2671Z" fill="#214521"/>
<path d="M37.7481 66.1724C38.2108 66.6209 38.4413 67.2843 38.4413 68.1656V71.7568H37.9407V68.2001C37.9407 67.4693 37.7544 66.9111 37.3833 66.5237C37.0122 66.1364 36.5085 65.9419 35.8706 65.9419C35.2326 65.9419 34.6704 66.152 34.2725 66.5739C33.8746 66.9957 33.6756 67.6199 33.6756 68.4479V71.7568H33.164V65.6251H33.6756V66.9236C33.8493 66.4641 34.1399 66.1128 34.5457 65.8682C34.9515 65.6235 35.4189 65.5012 35.9495 65.5012C36.6854 65.5012 37.2838 65.7255 37.7465 66.1724H37.7481Z" fill="#214521"/>
<path d="M41.0121 66.0644V70.1183C41.0121 70.5699 41.0958 70.8804 41.2616 71.0498C41.429 71.2192 41.7242 71.3038 42.149 71.3038H42.8422V71.7555H42.0685C41.53 71.7555 41.1337 71.63 40.881 71.3775C40.6268 71.1251 40.5004 70.7063 40.5004 70.1183V66.0644H39.5688V65.6237H40.5004V64.0649H41.0121V65.6237H42.8422V66.0644H41.0121Z" fill="#214521"/>
<path d="M49.7318 68.887H44.3992C44.4134 69.4359 44.535 69.9001 44.7624 70.2765C44.9898 70.6529 45.2898 70.9351 45.6609 71.1233C46.032 71.3115 46.4378 71.4056 46.8768 71.4056C47.4832 71.4056 47.9916 71.2566 48.4006 70.9602C48.8096 70.6623 49.067 70.2592 49.1744 69.7464H49.7081C49.5865 70.3721 49.2754 70.8771 48.7764 71.2645C48.2759 71.6518 47.6427 71.8463 46.8784 71.8463C46.302 71.8463 45.7872 71.7177 45.3324 71.4621C44.8777 71.2064 44.5208 70.8395 44.2634 70.3612C44.006 69.8829 43.8765 69.3246 43.8765 68.6847C43.8765 68.0449 44.0029 67.4882 44.2571 67.013C44.5113 66.5394 44.865 66.1756 45.3198 65.9231C45.7746 65.6706 46.2941 65.5452 46.8768 65.5452C47.4595 65.5452 47.9822 65.6706 48.418 65.9231C48.8538 66.1756 49.1854 66.5096 49.4128 66.9283C49.6402 67.3455 49.7539 67.7956 49.7539 68.277C49.7539 68.5483 49.746 68.7506 49.7318 68.887ZM48.9533 67.0914C48.737 66.7151 48.4432 66.4343 48.0722 66.2509C47.7011 66.0658 47.2984 65.9749 46.8673 65.9749C46.4362 65.9749 46.0351 66.0674 45.6672 66.2509C45.2993 66.4359 45.0008 66.7151 44.7687 67.0914C44.5382 67.4678 44.4134 67.9273 44.3992 68.4683H49.2423C49.2644 67.9257 49.1681 67.4678 48.9517 67.0914H48.9533Z" fill="#214521"/>
</g>
<defs>
<clipPath id="clip0_58_1633">
<rect width="65" height="78" fill="white"/>
</clipPath>
</defs>
</svg>
