<svg width="20" height="20" viewBox="0 0 20 20" fill="none" xmlns="http://www.w3.org/2000/svg">
<path fill-rule="evenodd" clip-rule="evenodd" d="M4.57756 16.1271C6.02118 17.4056 7.91995 18.1818 10 18.1818C12.0801 18.1818 13.9788 17.4056 15.4224 16.1271C15.1564 15.1703 13.2449 14.5455 10 14.5455C6.75511 14.5455 4.84364 15.1703 4.57756 16.1271ZM3.27319 14.6588C4.29632 13.3073 6.70055 12.7273 10 12.7273C13.2995 12.7273 15.7037 13.3073 16.7268 14.6588C17.6442 13.3367 18.1818 11.7311 18.1818 10C18.1818 5.48131 14.5187 1.81818 10 1.81818C5.48131 1.81818 1.81818 5.48131 1.81818 10C1.81818 11.7311 2.3558 13.3367 3.27319 14.6588ZM10 20C4.47715 20 0 15.5228 0 10C0 4.47715 4.47715 0 10 0C15.5228 0 20 4.47715 20 10C20 15.5228 15.5228 20 10 20ZM6.36364 8.18182C6.36364 6.1416 7.79918 4.54545 10 4.54545C12.1947 4.54545 13.6364 6.29234 13.6364 8.36364C13.6364 11.3451 12.0164 12.7273 10 12.7273C7.96442 12.7273 6.36364 11.2976 6.36364 8.18182ZM8.18182 8.18182C8.18182 10.2448 8.92565 10.9091 10 10.9091C11.0706 10.9091 11.8182 10.2713 11.8182 8.36364C11.8182 7.22765 11.1051 6.36364 10 6.36364C8.84885 6.36364 8.18182 7.1053 8.18182 8.18182Z" fill="black"/>
</svg>
