<svg width="73" height="55" viewBox="0 0 73 55" fill="none" xmlns="http://www.w3.org/2000/svg">
<path d="M0 9.16667C0 6.73552 0.961381 4.40394 2.67265 2.68485C4.38392 0.965771 6.7049 0 9.125 0H63.875C66.2951 0 68.6161 0.965771 70.3273 2.68485C72.0386 4.40394 73 6.73552 73 9.16667V13.75H0V9.16667ZM0 22.9167V45.8333C0 48.2645 0.961381 50.5961 2.67265 52.3151C4.38392 54.0342 6.7049 55 9.125 55H63.875C66.2951 55 68.6161 54.0342 70.3273 52.3151C72.0386 50.5961 73 48.2645 73 45.8333V22.9167H0ZM13.6875 32.0833H18.25C19.4601 32.0833 20.6205 32.5662 21.4762 33.4258C22.3318 34.2853 22.8125 35.4511 22.8125 36.6667V41.25C22.8125 42.4656 22.3318 43.6314 21.4762 44.4909C20.6205 45.3504 19.4601 45.8333 18.25 45.8333H13.6875C12.4774 45.8333 11.317 45.3504 10.4613 44.4909C9.60569 43.6314 9.125 42.4656 9.125 41.25V36.6667C9.125 35.4511 9.60569 34.2853 10.4613 33.4258C11.317 32.5662 12.4774 32.0833 13.6875 32.0833Z" fill="#214521"/>
</svg>
