<svg width="23" height="20" viewBox="0 0 23 20" fill="none" xmlns="http://www.w3.org/2000/svg">
<path d="M11.5 20C11.3487 20.0009 11.1987 19.9712 11.0586 19.9126C10.9185 19.8541 10.7911 19.7678 10.6836 19.6588L1.7493 10.5056C0.628619 9.34696 0 7.78267 0 6.15255C0 4.52243 0.628619 2.95814 1.7493 1.79949C2.87875 0.647122 4.4087 0 6.00374 0C7.59877 0 9.12872 0.647122 10.2582 1.79949L11.5 3.07012L12.7418 1.79949C13.8713 0.647122 15.4012 0 16.9963 0C18.5913 0 20.1212 0.647122 21.2507 1.79949C22.3714 2.95814 23 4.52243 23 6.15255C23 7.78267 22.3714 9.34696 21.2507 10.5056L12.3164 19.6588C12.209 19.7678 12.0815 19.8541 11.9414 19.9126C11.8013 19.9712 11.6513 20.0009 11.5 20ZM6.00374 2.35245C5.51698 2.35019 5.03462 2.44678 4.5846 2.63662C4.13459 2.82645 3.72586 3.10576 3.38209 3.45836C2.68765 4.17264 2.29782 5.13917 2.29782 6.14667C2.29782 7.15417 2.68765 8.1207 3.38209 8.83498L11.5 17.1528L19.6179 8.83498C20.3124 8.1207 20.7022 7.15417 20.7022 6.14667C20.7022 5.13917 20.3124 4.17264 19.6179 3.45836C18.9092 2.77329 17.9712 2.39162 16.9963 2.39162C16.0213 2.39162 15.0833 2.77329 14.3746 3.45836L12.3164 5.57606C12.2095 5.68634 12.0823 5.77386 11.9422 5.83359C11.8021 5.89332 11.6518 5.92407 11.5 5.92407C11.3482 5.92407 11.1979 5.89332 11.0578 5.83359C10.9177 5.77386 10.7905 5.68634 10.6836 5.57606L8.62538 3.45836C8.28161 3.10576 7.87288 2.82645 7.42287 2.63662C6.97285 2.44678 6.49049 2.35019 6.00374 2.35245Z" fill="#397638"/>
</svg>
