<svg width="20" height="28" viewBox="0 0 20 28" fill="none" xmlns="http://www.w3.org/2000/svg">
<path d="M16.7082 12.8086H3.29154C2.85432 12.8086 2.49988 13.3038 2.49988 13.9148V14.0312C2.49988 14.6421 2.85432 15.1374 3.29154 15.1374H16.7082C17.1454 15.1374 17.4999 14.6421 17.4999 14.0312V13.9148C17.4999 13.3038 17.1454 12.8086 16.7082 12.8086Z" fill="#231F20"/>
<path d="M16.7082 18.6307H3.29154C2.85432 18.6307 2.49988 19.1259 2.49988 19.7369V19.8533C2.49988 20.4642 2.85432 20.9595 3.29154 20.9595H16.7082C17.1454 20.9595 17.4999 20.4642 17.4999 19.8533V19.7369C17.4999 19.1259 17.1454 18.6307 16.7082 18.6307Z" fill="#231F20"/>
<path d="M16.7082 6.98651H3.29154C2.85432 6.98651 2.49988 7.48177 2.49988 8.09271V8.20915C2.49988 8.82008 2.85432 9.31534 3.29154 9.31534H16.7082C17.1454 9.31534 17.4999 8.82008 17.4999 8.20915V8.09271C17.4999 7.48177 17.1454 6.98651 16.7082 6.98651Z" fill="#231F20"/>
</svg>
