<svg width="20" height="20" viewBox="0 0 20 20" fill="none" xmlns="http://www.w3.org/2000/svg">
<path fill-rule="evenodd" clip-rule="evenodd" d="M14.5327 13.0975L20 18.5648L18.5648 20L13.0975 14.5327C11.7226 15.6014 9.99509 16.2378 8.1189 16.2378C3.63495 16.2378 0 12.6028 0 8.1189C0 3.63495 3.63495 0 8.1189 0C12.6028 0 16.2378 3.63495 16.2378 8.1189C16.2378 9.99509 15.6014 11.7226 14.5327 13.0975ZM8.1189 14.2081C11.4819 14.2081 14.2081 11.4819 14.2081 8.1189C14.2081 4.75594 11.4819 2.02972 8.1189 2.02972C4.75594 2.02972 2.02972 4.75594 2.02972 8.1189C2.02972 11.4819 4.75594 14.2081 8.1189 14.2081Z" fill="#605D5D"/>
</svg>
