<svg width="20" height="20" viewBox="0 0 20 20" fill="none" xmlns="http://www.w3.org/2000/svg">
<g id="Group 231">
<g id="Group">
<path id="Vector" d="M8.02759 11.6667H11.472V17.5H8.02759V11.6667Z" fill="#397638"/>
<path id="Vector_2" d="M17.0007 8.48333L10.3615 1.91666C10.2814 1.83856 10.1862 1.77656 10.0813 1.73426C9.97633 1.69195 9.86377 1.67017 9.7501 1.67017C9.63642 1.67017 9.52387 1.69195 9.41893 1.73426C9.314 1.77656 9.21876 1.83856 9.13871 1.91666L2.49954 8.49166C2.33889 8.64839 2.21201 8.83444 2.12628 9.03901C2.04054 9.24357 1.99765 9.46259 2.0001 9.68333V16.6667C1.99943 17.0933 2.16782 17.5039 2.47059 17.8139C2.77336 18.124 3.18745 18.3099 3.6276 18.3333H6.30565V10.8333C6.30565 10.6123 6.39638 10.4004 6.55787 10.2441C6.71936 10.0878 6.93838 10 7.16676 10H12.3334C12.5618 10 12.7808 10.0878 12.9423 10.2441C13.1038 10.4004 13.1945 10.6123 13.1945 10.8333V18.3333H15.8726C16.3127 18.3099 16.7268 18.124 17.0296 17.8139C17.3324 17.5039 17.5008 17.0933 17.5001 16.6667V9.68333C17.5008 9.23578 17.3217 8.80548 17.0007 8.48333Z" fill="#397638"/>
</g>
<g id="Group_2">
<g id="Group_3">
<path id="Vector_3" d="M8.39045 8.87955C8.39045 8.87955 6.05904 9.07827 6.0166 6.30435C6.0166 6.30435 8.64423 6.25841 8.56742 8.68862L7.62866 7.93713L8.39045 8.87955Z" fill="#F7F5F2"/>
<path id="Vector_4" d="M8.29682 8.89892C8.04324 8.89892 7.33175 8.85024 6.77112 8.34679C6.27331 7.89982 6.01379 7.21261 6 6.30455V6.2879L6.01655 6.28748C6.02907 6.28727 7.25557 6.27484 8.00483 7.02927C8.4114 7.43852 8.60641 7.99697 8.58456 8.68882L8.5835 8.72232L7.73895 8.04628L8.4235 8.89323L8.39209 8.89597C8.3904 8.89597 8.35602 8.89871 8.29703 8.89871L8.29682 8.89892ZM6.03374 6.32099C6.05029 7.21114 6.30599 7.88444 6.79362 8.32214C7.40156 8.86794 8.18966 8.8711 8.35687 8.86457L7.51869 7.82754L8.55145 8.65426C8.56567 7.98749 8.37384 7.44885 7.98064 7.05287C7.2891 6.35639 6.18291 6.32225 6.03353 6.32078L6.03374 6.32099Z" fill="#F7F5F2"/>
</g>
<g id="Group_4">
<path id="Vector_5" d="M9.4295 8.81191C9.4295 8.81191 6.44856 6.34145 9.661 3.02362C9.661 3.02362 12.8115 6.01776 9.8628 8.79189L9.64042 6.8175L9.42971 8.81169L9.4295 8.81191Z" fill="#F7F5F2"/>
<path id="Vector_6" d="M9.44322 8.84455L9.41903 8.82453C9.40736 8.81484 8.24346 7.83344 8.159 6.30497C8.0981 5.20388 8.59952 4.09604 9.64926 3.01201L9.66093 3L9.67303 3.01159C9.68767 3.0255 11.1446 4.43048 11.1402 6.18401C11.1378 7.13485 10.7119 8.01636 9.87482 8.8043L9.85042 8.82727L9.64141 6.97216L9.44343 8.84455H9.44322ZM9.66157 3.0472C8.6269 4.12027 8.13248 5.21547 8.19253 6.30265C8.26913 7.69414 9.24948 8.62834 9.41648 8.77796L9.64014 6.66301L9.8761 8.75689C10.6901 7.98159 11.1041 7.1161 11.1066 6.18422C11.1109 4.52952 9.80162 3.18608 9.66178 3.04742L9.66157 3.0472Z" fill="#F7F5F2"/>
</g>
<g id="Group_5">
<path id="Vector_7" d="M10.8993 8.87955C10.8993 8.87955 13.2307 9.07827 13.2732 6.30435C13.2732 6.30435 10.6455 6.25841 10.7224 8.68862L11.6611 7.93713L10.8993 8.87955Z" fill="#F7F5F2"/>
<path id="Vector_8" d="M10.9933 8.89892C10.9343 8.89892 10.8999 8.89618 10.8982 8.89618L10.8668 8.89344L11.5514 8.04649L10.7068 8.72253L10.7058 8.68903C10.6839 7.99718 10.8789 7.43873 11.2855 7.02948C12.0347 6.27483 13.2612 6.28811 13.2738 6.28769L13.2905 6.28811V6.30476C13.2763 7.21303 13.017 7.90003 12.5192 8.347C11.9586 8.85045 11.2471 8.89913 10.9935 8.89913L10.9933 8.89892ZM10.9332 8.86457C11.1007 8.87005 11.889 8.86773 12.4969 8.32192C12.9843 7.88422 13.2398 7.21092 13.2564 6.32099C13.1072 6.32225 12.0008 6.35639 11.3092 7.05308C10.916 7.44906 10.7242 7.9877 10.7384 8.65447L11.7712 7.82775L10.933 8.86478L10.9332 8.86457Z" fill="#F7F5F2"/>
</g>
</g>
</g>
</svg>
