<svg width="25" height="25" viewBox="0 0 25 25" fill="none" xmlns="http://www.w3.org/2000/svg">
<g id="&#240;&#159;&#166;&#134; icon &#34;heart&#34;">
<path id="Vector" d="M12.3821 21.665C12.2463 21.6657 12.1117 21.6397 11.986 21.5884C11.8602 21.537 11.7459 21.4614 11.6495 21.3658L3.63204 13.3394C2.62636 12.3234 2.06226 10.9517 2.06226 9.52224C2.06226 8.09279 2.62636 6.72108 3.63204 5.70507C4.64558 4.69456 6.01852 4.12711 7.44987 4.12711C8.88121 4.12711 10.2542 4.69456 11.2677 5.70507L12.3821 6.81927L13.4965 5.70507C14.51 4.69456 15.883 4.12711 17.3143 4.12711C18.7456 4.12711 20.1186 4.69456 21.1321 5.70507C22.1378 6.72108 22.7019 8.09279 22.7019 9.52224C22.7019 10.9517 22.1378 12.3234 21.1321 13.3394L13.1147 21.3658C13.0183 21.4614 12.9039 21.537 12.7782 21.5884C12.6525 21.6397 12.5179 21.6657 12.3821 21.665Z" fill="#397638"/>
</g>
</svg>
