<svg width="20" height="20" viewBox="0 0 20 20" fill="none" xmlns="http://www.w3.org/2000/svg">
<rect width="20" height="20" fill="#1E1E1E"/>
<g id="Accueil" clip-path="url(#clip0_1_3)">
<rect width="1280" height="3994" transform="translate(-278 -1755)" fill="#F7F5F2"/>
<g id="category-container">
<g id="category-content">
<g id="category-1">
<g id="Frame 77">
<g id="&#240;&#159;&#166;&#134; icon &#34;arrow forward outline&#34;">
<path id="Vector" d="M4.16665 10.8333H14.05L11.025 14.4666C10.9549 14.5509 10.9022 14.6481 10.8697 14.7528C10.8373 14.8574 10.8257 14.9675 10.8358 15.0766C10.8561 15.2969 10.9631 15.5002 11.1333 15.6416C11.3035 15.7831 11.5229 15.8511 11.7432 15.8308C11.9636 15.8105 12.1669 15.7035 12.3083 15.5333L16.475 10.5333C16.503 10.4935 16.5281 10.4517 16.55 10.4083C16.55 10.3666 16.5916 10.3416 16.6083 10.3C16.6461 10.2044 16.6659 10.1027 16.6666 9.99996C16.6659 9.89722 16.6461 9.79551 16.6083 9.69996C16.6083 9.65829 16.5666 9.63329 16.55 9.59163C16.5281 9.54818 16.503 9.5064 16.475 9.46663L12.3083 4.46663C12.23 4.37256 12.1318 4.29691 12.0209 4.24506C11.91 4.19321 11.7891 4.16643 11.6666 4.16663C11.4719 4.16625 11.2832 4.23406 11.1333 4.35829C11.0489 4.42825 10.9792 4.51417 10.9281 4.61112C10.8769 4.70808 10.8454 4.81417 10.8354 4.92332C10.8253 5.03247 10.8369 5.14253 10.8694 5.2472C10.9019 5.35187 10.9548 5.44909 11.025 5.53329L14.05 9.16663H4.16665C3.94563 9.16663 3.73367 9.25443 3.57739 9.41071C3.42111 9.56699 3.33331 9.77895 3.33331 9.99996C3.33331 10.221 3.42111 10.4329 3.57739 10.5892C3.73367 10.7455 3.94563 10.8333 4.16665 10.8333Z" fill="black"/>
</g>
</g>
</g>
</g>
</g>
</g>
<defs>
<clipPath id="clip0_1_3">
<rect width="1280" height="3994" fill="white" transform="translate(-278 -1755)"/>
</clipPath>
</defs>
</svg>
