<svg width="135" height="37" viewBox="0 0 135 37" fill="none" xmlns="http://www.w3.org/2000/svg">
<path d="M61.88 26.14C60.72 26.14 59.7 25.9 58.82 25.42C57.94 24.9267 57.2533 24.24 56.76 23.36C56.28 22.48 56.04 21.4733 56.04 20.34C56.04 18.7667 56.3933 17.34 57.1 16.06C57.82 14.7667 58.8067 13.7533 60.06 13.02C61.3133 12.2733 62.7133 11.9 64.26 11.9C65.4333 11.9 66.46 12.1467 67.34 12.64C68.2333 13.12 68.92 13.8 69.4 14.68C69.88 15.5467 70.12 16.5467 70.12 17.68C70.12 19.2667 69.76 20.7067 69.04 22C68.3333 23.28 67.3533 24.2933 66.1 25.04C64.8467 25.7733 63.44 26.14 61.88 26.14ZM62.14 24.5C63.3133 24.5 64.36 24.2 65.28 23.6C66.2133 22.9867 66.94 22.1667 67.46 21.14C67.98 20.1133 68.24 19 68.24 17.8C68.24 16.48 67.86 15.44 67.1 14.68C66.34 13.92 65.3067 13.54 64 13.54C62.8267 13.54 61.7733 13.8467 60.84 14.46C59.92 15.06 59.2 15.8733 58.68 16.9C58.1733 17.9133 57.92 19.02 57.92 20.22C57.92 21.54 58.2933 22.5867 59.04 23.36C59.8 24.12 60.8333 24.5 62.14 24.5ZM74.6427 17.12C75.0827 16.4 75.636 15.84 76.3027 15.44C76.9693 15.04 77.7293 14.84 78.5827 14.84L78.2427 16.72H77.7627C76.816 16.72 76.0227 16.9733 75.3827 17.48C74.756 17.9867 74.336 18.84 74.1227 20.04L73.0627 26H71.2427L73.1827 15.04H75.0027L74.6427 17.12ZM81.8836 13.26C81.5903 13.26 81.3436 13.1667 81.1436 12.98C80.9569 12.78 80.8636 12.5333 80.8636 12.24C80.8636 11.84 81.0103 11.5 81.3036 11.22C81.5969 10.9267 81.9369 10.78 82.3236 10.78C82.6303 10.78 82.8769 10.8733 83.0636 11.06C83.2503 11.2467 83.3436 11.4933 83.3436 11.8C83.3436 12.2 83.1969 12.5467 82.9036 12.84C82.6103 13.12 82.2703 13.26 81.8836 13.26ZM82.4636 15.04L80.5236 26H78.7036L80.6436 15.04H82.4636ZM101.183 21.6C100.823 22.0933 100.476 22.5133 100.143 22.86L102.723 26H100.362L98.8625 24.16C98.0625 24.8667 97.2425 25.3933 96.4025 25.74C95.5758 26.0733 94.6825 26.24 93.7225 26.24C92.4158 26.24 91.3825 25.9267 90.6225 25.3C89.8625 24.66 89.4825 23.7867 89.4825 22.68C89.4825 21.56 89.8558 20.5667 90.6025 19.7C91.3492 18.82 92.3492 18.14 93.6025 17.66C93.3358 17.2733 93.1358 16.9133 93.0025 16.58C92.8825 16.2467 92.8225 15.9067 92.8225 15.56C92.8225 14.8267 93.0025 14.1733 93.3625 13.6C93.7225 13.0267 94.2225 12.58 94.8625 12.26C95.5025 11.94 96.2358 11.78 97.0625 11.78C97.9958 11.78 98.7358 12.02 99.2825 12.5C99.8292 12.98 100.103 13.5933 100.103 14.34C100.103 14.46 100.089 14.64 100.063 14.88H98.2425C98.2558 14.8133 98.2625 14.7133 98.2625 14.58C98.2625 14.18 98.1225 13.8667 97.8425 13.64C97.5758 13.4 97.2225 13.28 96.7825 13.28C96.1825 13.28 95.6825 13.4733 95.2825 13.86C94.8825 14.2467 94.6825 14.7133 94.6825 15.26C94.6825 15.58 94.7625 15.9067 94.9225 16.24C95.0825 16.56 95.3358 16.9533 95.6825 17.42L99.1225 21.6L99.5825 21.02L101.363 18.76H103.323L101.183 21.6ZM93.9825 24.68C94.6892 24.68 95.3558 24.54 95.9825 24.26C96.6092 23.98 97.2425 23.54 97.8825 22.94L94.5225 18.84C93.5358 19.2 92.7558 19.6867 92.1825 20.3C91.6225 20.9 91.3425 21.6067 91.3425 22.42C91.3425 23.0867 91.5825 23.6333 92.0625 24.06C92.5425 24.4733 93.1825 24.68 93.9825 24.68ZM110.82 20.5C111.02 19.3667 111.42 18.38 112.02 17.54C112.633 16.6867 113.386 16.0267 114.28 15.56C115.173 15.0933 116.14 14.86 117.18 14.86C118.526 14.86 119.573 15.1867 120.32 15.84C121.08 16.4933 121.5 17.4 121.58 18.56H119.62C119.553 17.8933 119.28 17.3667 118.8 16.98C118.333 16.5933 117.7 16.4 116.9 16.4C115.86 16.4 114.953 16.76 114.18 17.48C113.42 18.1867 112.926 19.1933 112.7 20.5C112.633 20.94 112.6 21.3067 112.6 21.6C112.6 22.5733 112.86 23.3267 113.38 23.86C113.9 24.38 114.593 24.64 115.46 24.64C116.26 24.64 116.953 24.4533 117.54 24.08C118.14 23.7067 118.6 23.1733 118.92 22.48H120.88C120.4 23.6 119.66 24.5 118.66 25.18C117.66 25.8467 116.5 26.18 115.18 26.18C113.806 26.18 112.713 25.7867 111.9 25C111.1 24.2133 110.7 23.14 110.7 21.78C110.7 21.3667 110.74 20.94 110.82 20.5ZM127.508 26.18C126.588 26.18 125.775 25.9933 125.068 25.62C124.375 25.2333 123.835 24.7 123.448 24.02C123.061 23.3267 122.868 22.5267 122.868 21.62C122.868 20.38 123.155 19.2467 123.728 18.22C124.301 17.18 125.088 16.36 126.088 15.76C127.101 15.16 128.228 14.86 129.468 14.86C130.388 14.86 131.201 15.0533 131.908 15.44C132.628 15.8133 133.181 16.3467 133.568 17.04C133.968 17.72 134.168 18.52 134.168 19.44C134.168 20.68 133.875 21.8133 133.288 22.84C132.701 23.8667 131.901 24.68 130.888 25.28C129.875 25.88 128.748 26.18 127.508 26.18ZM127.728 24.64C128.595 24.64 129.375 24.4067 130.068 23.94C130.761 23.46 131.301 22.8333 131.688 22.06C132.088 21.2733 132.288 20.4333 132.288 19.54C132.288 18.5267 131.995 17.7533 131.408 17.22C130.821 16.6733 130.088 16.4 129.208 16.4C128.341 16.4 127.568 16.64 126.888 17.12C126.208 17.5867 125.681 18.2133 125.308 19C124.935 19.7867 124.748 20.6333 124.748 21.54C124.748 22.5267 125.028 23.2933 125.588 23.84C126.148 24.3733 126.861 24.64 127.728 24.64Z" fill="#214521"/>
<g clip-path="url(#clip0_404_43)">
<path d="M15.8492 35.714L10.0549 30.9961L14.7569 36.9127" fill="#397638"/>
<path d="M14.7568 36.9127C14.7568 36.9127 0.366684 38.1603 0.104736 20.7452C0.104736 20.7452 16.3232 20.4568 15.8491 35.714" fill="#397638"/>
<path d="M15.9462 35.927L10.7334 31.6827L14.9586 37" fill="#397638"/>
<path d="M4.76081 33.5694C1.68816 30.7632 0.0876635 26.4488 0.0012207 20.7465V20.642L0.10338 20.6393C0.180655 20.638 7.75094 20.56 12.3756 25.2964C14.8851 27.8658 16.0887 31.3718 15.9538 35.7153" fill="#397638"/>
<path d="M15.751 35.4997C15.8387 31.3136 14.6547 27.9319 12.2278 25.4459C7.96066 21.0733 1.13168 20.8576 0.210938 20.8497C0.313097 26.4382 1.89133 30.6653 4.90111 33.4133" fill="#214521"/>
<path d="M14.5499 36.8187L9.37646 30.3081L15.751 35.4984" fill="#397638"/>
<path d="M23.8451 36.3623L22.4724 23.9668L21.1719 36.4867" fill="#397638"/>
<path d="M21.1707 36.488C21.1707 36.488 2.77014 20.978 22.5996 0.148178C22.5996 0.148178 42.0453 18.9459 23.8451 36.3623" fill="#397638"/>
<path d="M23.7653 36.5832L22.4752 24.9379L21.2532 36.6931" fill="#397638"/>
<path d="M21.1039 36.5674C21.0319 36.5065 13.848 30.3451 13.3267 20.7492C12.9508 13.8363 16.0457 6.88111 22.525 0.075413L22.597 0L22.6717 0.0727669C22.762 0.160087 31.7547 8.98076 31.7272 19.9897C31.7128 25.9593 29.0842 31.4935 23.9172 36.4404" fill="#397638"/>
<path d="M23.9237 36.1414C28.9479 31.2739 31.5032 25.8402 31.5189 19.9897C31.5451 9.60126 23.464 1.16691 22.6009 0.296356C16.2146 7.03325 13.1629 13.9091 13.5335 20.7346C14.0064 29.4706 20.0573 35.3356 21.0881 36.275" fill="#214521"/>
<path d="M21.0881 36.275L22.4686 22.997L23.925 36.1427" fill="#397638"/>
<path d="M29.1509 35.714L34.9452 30.9961L30.2432 36.9127" fill="#397638"/>
<path d="M30.2431 36.9127C30.2431 36.9127 44.6332 38.1603 44.8952 20.7452C44.8952 20.7452 28.6767 20.4568 29.1508 35.714" fill="#397638"/>
<path d="M29.0473 35.7167C28.9124 31.3731 30.1161 27.8671 32.6255 25.2978C37.2502 20.56 44.8205 20.6433 44.8978 20.6407L45.0012 20.6433V20.7478C44.9135 26.4501 43.313 30.7632 40.2403 33.5694" fill="#397638"/>
<path d="M30.0415 37L34.2667 31.6827L29.054 35.927" fill="#397638"/>
<path d="M29.249 35.4997L35.6235 30.3094L30.4501 36.8201" fill="#397638"/>
<path d="M40.1015 33.4119C43.11 30.664 44.6869 26.4369 44.7891 20.8497C43.8683 20.8576 37.0393 21.072 32.7709 25.4459C30.344 27.9319 29.16 31.3136 29.2477 35.4997" fill="#214521"/>
</g>
<defs>
<clipPath id="clip0_404_43">
<rect width="45" height="37" rx="4" fill="white"/>
</clipPath>
</defs>
</svg>
